<svg width="68" height="68" viewBox="0 0 68 68" fill="none" xmlns="http://www.w3.org/2000/svg">
<g clip-path="url(#clip0)">
<path d="M8.82982 68.15L8.80751 68.0267L7.56266 61.1466L7.56263 61.1464L7.71023 61.1197L8.82982 68.15ZM8.82982 68.15H8.95511H59.0449H59.1702L59.1925 68.0267L60.4373 61.1466C62.6608 48.9445 56.2612 36.9023 45.0975 31.8498M8.82982 68.15L45.0975 31.8498M45.0975 31.8498C45.1349 31.7975 45.1813 31.7318 45.236 31.6534C45.3905 31.4317 45.6103 31.1087 45.8735 30.6969C46.3998 29.8735 47.1001 28.6951 47.8 27.2642C49.1987 24.4047 50.6012 20.5259 50.6012 16.4512C50.6012 7.29275 43.1584 -0.15 34 -0.15C24.8416 -0.15 17.3988 7.29275 17.3988 16.4512C17.3988 20.6393 18.801 24.5214 20.2002 27.3551C20.9003 28.7729 21.6008 29.9306 22.1273 30.7358C22.3906 31.1385 22.6105 31.4532 22.7652 31.6683C22.8174 31.7409 22.8622 31.8021 22.8986 31.8515L45.0975 31.8498ZM36.0118 9.98222L36.0121 9.98194L36.0031 9.9767C32.0708 7.6851 27.135 7.8883 23.4191 10.5057L20.4393 12.5964C22.1363 6.69138 27.562 2.34528 34 2.34528C39.6656 2.34528 44.5489 5.69836 46.7844 10.5278C44.4299 12.2803 41.7678 12.1661 39.6663 11.5963C38.6023 11.3077 37.6873 10.9035 37.0381 10.5712C36.7137 10.4051 36.4562 10.2572 36.2802 10.1511C36.1922 10.0981 36.1246 10.0555 36.0793 10.0264C36.0566 10.0118 36.0395 10.0006 36.0282 9.99314L36.0156 9.98475L36.0126 9.98275L36.012 9.9823L36.0118 9.98222ZM57.9871 60.7046L57.0859 65.6547H10.9141L10.0129 60.7046C7.95705 49.404 14.0734 38.2618 24.6049 33.8704C27.232 36.6576 30.4424 38.5406 34.0134 38.5406C37.5843 38.5406 40.7947 36.6576 43.4218 33.8705C53.9266 38.262 60.0429 49.404 57.9871 60.7046ZM19.8941 16.4512C19.8941 16.3065 19.9037 16.161 19.915 16.0111L24.8634 12.5314C27.7855 10.478 31.6679 10.306 34.7483 12.1064L34.7627 12.1165C34.7757 12.1256 34.795 12.139 34.8201 12.1561C34.8705 12.1903 34.9447 12.2395 35.0411 12.3006C35.234 12.4227 35.5159 12.5921 35.874 12.7827C36.59 13.1636 37.6121 13.6297 38.8373 13.9704C41.2446 14.6399 44.4449 14.8272 47.64 12.9224C47.9285 14.0456 48.1059 15.2247 48.1059 16.4378C48.1059 20.2988 46.5212 25.2068 43.9538 29.1494C41.3829 33.0975 37.8583 36.0319 34 36.0319C30.1416 36.0319 26.617 33.1007 24.0461 29.1561C21.4788 25.2168 19.8941 20.3122 19.8941 16.4512Z" fill="#F9ED37" stroke="#F9ED37" stroke-width="0.3"/>
<path d="M37.2795 53.8941H41.5201V58.1346V58.2846H41.6701H48.2559H48.4059V58.1346V53.8941H52.6465H52.7965V53.7441V47.1582V47.0082H52.6465H48.4059V42.7677V42.6177H48.2559H41.6701H41.5201V42.7677V47.0082H37.2795H37.1295V47.1582V53.7441V53.8941H37.2795ZM46.074 49.5035H50.3012V51.3988H46.0606H45.9106V51.5488V55.7894H44.0154V51.5488V51.3988H43.8654H39.6382V49.5035H43.8788H44.0288V49.3535V45.113H45.924V49.3535V49.5035H46.074Z" fill="#F9ED37" stroke="#F9ED37" stroke-width="0.3"/>
</g>
<defs>
<clipPath id="clip0">
<rect width="68" height="68" fill="white"/>
</clipPath>
</defs>
</svg>
