<svg width="68" height="68" viewBox="0 0 68 68" fill="none" xmlns="http://www.w3.org/2000/svg">
<g clip-path="url(#clip0)">
<path d="M67.4572 1.50198C66.8416 0.561531 65.8032 0 64.6791 0H47.6557C46.3355 0 45.1411 0.781734 44.6128 1.99166L34.0007 26.2944L23.3886 1.99166C22.8602 0.781867 21.6659 0.000132813 20.3457 0.000132813H3.32233C2.19834 0.000132813 1.15974 0.561664 0.54429 1.50211C-0.0712958 2.44269 -0.170241 3.61914 0.279595 4.64923L16.2609 41.2481C15.2837 43.5527 14.7429 46.0854 14.7429 48.7421C14.7429 59.3609 23.3819 68 34.0007 68C44.6194 68 53.2585 59.3609 53.2585 48.7421C53.2585 46.0854 52.7177 43.5527 51.7405 41.2481L67.7219 4.6491C68.1718 3.61901 68.0728 2.44242 67.4572 1.50198ZM48.0904 3.98438H53.7036L41.8398 31.1533C40.2789 30.4548 38.6088 29.9583 36.8625 29.6969L48.0904 3.98438ZM34.0007 64.0156C25.5789 64.0156 18.7273 57.164 18.7273 48.7421C18.7273 40.3201 25.5789 33.4685 34.0007 33.4685C42.4225 33.4685 49.2741 40.3201 49.2741 48.7421C49.2741 57.164 42.4225 64.0156 34.0007 64.0156ZM31.1387 29.697C29.3925 29.9583 27.7224 30.455 26.1614 31.1534L14.2978 3.98451H19.911L31.1387 29.697ZM4.33688 3.98451H9.95007L22.692 33.1645C21.2035 34.248 19.8758 35.5392 18.7516 36.9953L4.33688 3.98451ZM49.2498 36.9952C48.1256 35.539 46.7978 34.248 45.3094 33.1643L58.0513 3.98438H63.6645L49.2498 36.9952Z" fill="#F9ED37"/>
<path d="M37.4116 42.1014C37.4116 41.0012 36.5196 40.1092 35.4194 40.1092H32.5807C31.4805 40.1092 30.5885 41.0012 30.5885 42.1014C30.5885 43.2016 31.4805 44.0936 32.5807 44.0936H33.4272V55.3828C33.4272 56.483 34.3192 57.375 35.4194 57.375C36.5196 57.375 37.4116 56.483 37.4116 55.3828V42.1014Z" fill="#F9ED37"/>
</g>
<defs>
<clipPath id="clip0">
<rect width="68" height="68" fill="white"/>
</clipPath>
</defs>
</svg>
