<svg width="68" height="68" viewBox="0 0 68 68" fill="none" xmlns="http://www.w3.org/2000/svg">
<g clip-path="url(#clip0)">
<path d="M10.6379 18.6076H10.6381H10.7107H10.711C13.5777 18.6046 15.9005 16.2818 15.9035 13.4151V13.4148V11.7689V11.7687C15.9005 8.90251 13.5777 6.5798 10.711 6.57611H10.7107L10.6381 6.57611L10.6378 6.57611C7.77118 6.5798 5.44839 8.90251 5.44531 11.7687V11.7689L5.44531 13.4142L5.44531 13.4144C5.44777 16.2812 7.77117 18.6046 10.6379 18.6076ZM8.04227 11.7698C8.04227 11.7697 8.04227 11.7697 8.04227 11.7696C8.04398 10.3366 9.20472 9.17537 10.6382 9.17365C10.6383 9.17365 10.6384 9.17365 10.6384 9.17365H10.7104C10.7105 9.17365 10.7106 9.17365 10.7106 9.17365C12.1436 9.17537 13.305 10.3368 13.3066 11.7698V13.4145C13.305 14.8476 12.1435 16.0091 10.7104 16.0107H10.6384C9.20483 16.0091 8.04398 14.8478 8.04227 13.4147C8.04227 13.4147 8.04227 13.4146 8.04227 13.4145V11.7698Z" fill="#F9ED37" stroke="#F9ED37" stroke-width="0.5"/>
<path d="M19.2623 25.3486L19.2623 25.3482C19.3418 24.565 19.0857 23.7844 18.558 23.2002C18.0296 22.616 17.279 22.2826 16.492 22.2826H14.9363L11.7012 25.318C11.7011 25.318 11.7011 25.318 11.701 25.3181L11.7009 25.3182L11.5298 25.1359L19.2623 25.3486ZM19.2623 25.3486C19.2579 25.3921 19.2558 25.436 19.2558 25.4794V37.5588C19.2496 38.0356 18.861 38.4196 18.3836 38.4196C17.9068 38.4196 17.5181 38.0357 17.5119 37.5588V35.0025L17.5241 34.5189L17.5306 34.2626H17.5119M19.2623 25.3486L17.5119 34.2626M17.5119 34.2626V29.4738V29.2238H17.2619H15.165H14.915V29.4738V34.9716L14.9077 35.2584H6.73776L6.71756 34.4536L6.71144 34.2099H6.70476V29.4743V29.2243H6.45476H4.3578H4.1078V29.4743V37.5018H4.10774L4.10787 37.5073C4.11884 37.9994 3.73535 38.4094 3.24415 38.4319C3.01353 38.4337 2.79147 38.3435 2.62677 38.1811C2.46162 38.0172 2.36867 37.795 2.36867 37.5626V25.4799C2.36867 25.436 2.3665 25.3926 2.36216 25.3492L2.36213 25.3488C2.28266 24.5649 2.53877 23.7843 3.06704 23.2002C3.5954 22.616 4.34601 22.2826 5.13363 22.2826H6.80255L9.905 25.3016C9.91604 25.3124 9.92645 25.3209 9.93275 25.3257C9.96706 25.3575 10.003 25.3875 10.0413 25.416C10.0453 25.4192 10.0522 25.4246 10.0614 25.4308C10.1068 25.4628 10.1546 25.4922 10.2042 25.5184L10.2042 25.5185L10.2092 25.521L10.21 25.5214C10.2169 25.5249 10.2263 25.5295 10.2366 25.5344C10.284 25.5583 10.3312 25.5778 10.3763 25.5944C10.3765 25.5945 10.3767 25.5946 10.3769 25.5947L10.3769 25.5948L10.3786 25.5953C10.3828 25.5969 10.3899 25.5996 10.3987 25.6024C10.4492 25.6189 10.5016 25.6331 10.5564 25.6439L10.5564 25.644L10.5637 25.6452L10.5917 25.65C10.5919 25.65 10.5921 25.65 10.5923 25.6501L10.5924 25.6501L17.5119 34.2626ZM11.2934 25.5764C11.2414 25.5976 11.189 25.6147 11.1371 25.6285L11.1335 25.6295L11.1335 25.6295L11.1288 25.6306L11.128 25.6308C11.074 25.6441 11.0199 25.6534 10.9675 25.6597L10.9653 25.66L10.9495 25.6617L10.9337 25.6635L10.9291 25.664L10.929 25.6639C10.8737 25.669 10.8194 25.6704 10.7661 25.669L10.7581 25.6688L10.7501 25.6681L10.7388 25.6668L11.2934 25.5764ZM11.2934 25.5764C11.2985 25.5748 11.3048 25.5725 11.3119 25.5696M11.2934 25.5764L11.3119 25.5696M11.3119 25.5696C11.3192 25.5668 11.3254 25.564 11.3302 25.5617C11.333 25.5604 11.3357 25.5591 11.3381 25.5578L11.3119 25.5696ZM14.4219 19.6851L14.4214 19.6851C14.0912 19.6858 13.7739 19.8118 13.5334 20.0378L10.828 22.5762L8.2352 20.0525L8.23491 20.0523C7.99235 19.8169 7.66782 19.6851 7.32947 19.6851H5.13305C3.62118 19.6851 2.17927 20.3207 1.15949 21.4362L1.15945 21.4363C0.142263 22.5495 -0.361541 24.0383 -0.228876 25.5402V37.562C-0.228876 39.4759 1.32237 41.027 3.23602 41.0283H3.23619L3.27422 41.0283L3.27694 41.0283C3.61907 41.0245 3.95809 40.9688 4.28245 40.8637L4.82578 62.2691L4.82586 62.2716C4.87674 63.7088 5.76745 64.982 7.10041 65.5223L7.10051 65.5223C8.36095 66.0325 9.79394 65.798 10.823 64.9279C11.8535 65.7991 13.2895 66.0336 14.5513 65.5198C15.8855 64.9764 16.7743 63.6987 16.8208 62.2597L16.8209 62.258L17.3638 40.8751C18.349 41.179 19.426 41.0295 20.2965 40.4544L20.2966 40.4544C21.2681 39.812 21.8533 38.7256 21.8533 37.5603V25.5408C21.9854 24.039 21.4822 22.5502 20.465 21.4369L20.4649 21.4368C19.4446 20.3207 18.0027 19.6851 16.4908 19.6851L14.4219 19.6851ZM13.1742 63.1917H13.1735C12.5923 63.1912 12.1214 62.7202 12.1209 62.1397V40.343V40.093H11.8709H9.77397H9.52397V40.343V62.1397C9.5235 62.7112 9.06685 63.1778 8.49524 63.1906C7.92447 63.2033 7.44799 62.7588 7.42076 62.1888C7.42073 62.188 7.42069 62.1872 7.42065 62.1864L6.80305 37.8553H14.843L14.2247 62.178C14.2247 62.1782 14.2247 62.1785 14.2247 62.1788C14.2058 62.7448 13.7402 63.1936 13.1742 63.1917ZM10.3739 25.5935L10.374 25.5935L10.3739 25.5935Z" fill="#F9ED37" stroke="#F9ED37" stroke-width="0.5"/>
<path d="M57.0149 18.6076H57.0152H57.0884H57.0886C59.9548 18.6046 62.2775 16.2818 62.2812 13.4151V13.4148V11.7689V11.7686C62.2775 8.90253 59.9548 6.5798 57.0887 6.57611H57.0884L57.0152 6.57611L57.0149 6.57611C54.1482 6.5798 51.8255 8.90251 51.8224 11.7687V11.7689L51.8224 13.4142L51.8224 13.4145C51.8255 16.2812 54.1482 18.6046 57.0149 18.6076ZM54.4193 11.7698C54.4193 11.7697 54.4193 11.7697 54.4193 11.7696C54.4211 10.3367 55.5823 9.17537 57.0153 9.17365C57.0154 9.17365 57.0154 9.17365 57.0155 9.17365H57.0881C57.0881 9.17365 57.0882 9.17365 57.0883 9.17365C58.5213 9.17537 59.6826 10.3368 59.6842 11.7698V13.4145C59.6826 14.8476 58.5212 16.0091 57.0881 16.0107H57.0155C55.5825 16.0091 54.4211 14.8477 54.4193 13.4147C54.4193 13.4147 54.4193 13.4146 54.4193 13.4145V11.7698Z" fill="#F9ED37" stroke="#F9ED37" stroke-width="0.5"/>
<path d="M49.2581 23.0325C48.6823 23.6691 48.4032 24.5198 48.4898 25.374L49.2581 23.0325ZM49.2581 23.0325C49.8332 22.3959 50.6517 22.0326 51.5101 22.0326H53.28L56.4576 25.123C56.4599 25.1254 56.4628 25.1275 56.4657 25.1296C56.4679 25.1313 56.4702 25.133 56.4722 25.1347C56.5038 25.1652 56.5372 25.1927 56.5723 25.2184M49.2581 23.0325L56.842 25.36M56.842 25.36C56.8016 25.3454 56.7618 25.329 56.7238 25.3097L56.6992 25.2974C56.6577 25.2758 56.6179 25.2512 56.5793 25.2243C56.5781 25.2234 56.5769 25.2224 56.5758 25.2213C56.5746 25.2203 56.5734 25.2193 56.5723 25.2184M56.842 25.36L56.8519 25.3635L56.842 25.36ZM56.5723 25.2184L56.4223 25.4184C56.4177 25.415 56.4143 25.4122 56.4128 25.4109L56.5723 25.2184ZM62.8685 19.6851H62.8684L60.7989 19.6851L60.7984 19.6851C60.4682 19.6858 60.1509 19.8118 59.9104 20.0378L57.205 22.5756L54.6122 20.0525L54.6119 20.0523C54.3694 19.8169 54.0448 19.6851 53.7065 19.6851H51.5101C49.9982 19.6851 48.5563 20.3207 47.536 21.4362L47.5359 21.4363C46.5186 22.5496 46.0155 24.0384 46.1476 25.5402L46.1476 37.562L46.1476 37.5621C46.1482 39.4759 47.6994 41.027 49.613 41.0283H49.6132L49.6507 41.0283L49.6537 41.0283C49.9956 41.0241 50.3343 40.9683 50.6583 40.8635L51.2016 62.2685L51.2017 62.271C51.2526 63.7082 52.1433 64.9815 53.4763 65.5217C54.7368 66.0326 56.1698 65.7974 57.1989 64.9278C58.2298 65.7991 59.6652 66.0331 60.9271 65.5192C62.2613 64.9765 63.1508 63.6988 63.1967 62.259L63.1967 62.2574L63.7396 40.8749C64.7248 41.1784 65.8018 41.0289 66.6724 40.4538L66.6725 40.4538C67.6439 39.8114 68.2292 38.725 68.2292 37.5603V25.5408C68.3618 24.0389 67.858 22.5501 66.8414 21.4374L66.6568 21.6061L66.8414 21.4374C65.8216 20.3213 64.3797 19.6857 62.8685 19.6851ZM59.5512 63.1917H59.5506C58.9693 63.1912 58.4984 62.7202 58.498 62.1397V40.343V40.093H58.248H56.151H55.901V40.343L55.901 62.1399L55.901 62.1405C55.9024 62.7128 55.4453 63.1813 54.8729 63.1941C54.3011 63.2068 53.824 62.7603 53.7984 62.1891C53.7983 62.1884 53.7983 62.1878 53.7983 62.1871L53.1801 37.8553H61.22L60.6017 62.178C60.6017 62.1782 60.6017 62.1785 60.6017 62.1788C60.5828 62.7449 60.1177 63.1936 59.5512 63.1917ZM65.6454 25.2872L65.6393 25.3486C65.6349 25.392 65.6328 25.436 65.6328 25.4794V37.5603C65.6328 38.0418 65.2427 38.4319 64.7612 38.4319C64.2796 38.4319 63.8895 38.0418 63.8895 37.5603V35.0025L63.9018 34.5189L63.9082 34.2626H63.8895V29.4738V29.2238H63.6395H61.5426H61.2926V29.4738V34.971L61.2854 35.2578H53.1142L53.094 34.453L53.0879 34.2093H53.0812V29.4738V29.2238H52.8312H50.7342H50.4842V29.4738V37.5018H50.4842L50.4843 37.5073C50.4953 37.9994 50.1118 38.4094 49.6206 38.4319C49.3898 38.4337 49.1678 38.3434 49.0038 38.1812C48.8382 38.0174 48.7451 37.7946 48.7451 37.5626V25.4799C48.7451 25.436 48.7429 25.3926 48.7386 25.3492L48.7386 25.3488C48.6591 24.5649 48.9152 23.7843 49.4435 23.2002L49.4436 23.2001C49.9713 22.6161 50.7224 22.2826 51.5101 22.2826H53.1784L56.2826 25.3016C56.291 25.3099 56.2986 25.3162 56.3037 25.3204C56.3057 25.322 56.3076 25.3235 56.3093 25.3248C56.3445 25.3579 56.3807 25.3875 56.4173 25.4147C56.42 25.4171 56.4242 25.4205 56.4293 25.4243L56.4292 25.4244L56.4363 25.4294C56.4825 25.4615 56.5314 25.4918 56.5837 25.5191L56.5837 25.5191L56.5874 25.521L56.6106 25.5326C56.6109 25.5327 56.6112 25.5329 56.6114 25.533C56.6608 25.558 56.7102 25.5782 56.7568 25.5951L56.7568 25.5951L56.7588 25.5958L56.7687 25.5993L56.7687 25.5993L56.7709 25.6C56.8246 25.6184 56.8794 25.633 56.9346 25.6439L56.9346 25.6439L56.9395 25.6448L56.9729 25.6505L56.9735 25.6506C57.0198 25.6582 57.0679 25.6639 57.117 25.6668L57.1283 25.6681L57.1363 25.6688L57.1443 25.669C57.1955 25.6704 57.2492 25.6692 57.3041 25.6636C57.3194 25.6626 57.3343 25.661 57.3491 25.6588C57.3982 25.6532 57.4453 25.6445 57.4902 25.634C57.4984 25.6326 57.5083 25.6305 57.5193 25.6273C57.5704 25.6137 57.6203 25.5971 57.6696 25.577C57.6717 25.5763 57.674 25.5756 57.6764 25.5748C57.6816 25.573 57.6879 25.5706 57.6949 25.5676C57.7045 25.5636 57.7123 25.5598 57.7178 25.5568C57.7195 25.5559 57.7212 25.555 57.7227 25.5542C57.8234 25.5089 57.9186 25.4509 58.0055 25.3807L58.0056 25.3808L58.013 25.3744L58.0218 25.367C58.027 25.3628 58.0355 25.3557 58.045 25.3469L58.0489 25.3437C58.0532 25.3402 58.0658 25.3302 58.0787 25.3181C58.0787 25.318 58.0787 25.318 58.0788 25.318L61.3139 22.2826H62.8696C63.6572 22.2826 64.4078 22.616 64.9355 23.2001L64.9356 23.2002C65.4501 23.7691 65.7059 24.5244 65.6454 25.2872ZM57.7382 25.5449C57.7383 25.5448 57.7383 25.5448 57.7382 25.5449L57.7382 25.5449Z" fill="#F9ED37" stroke="#F9ED37" stroke-width="0.5"/>
<path d="M33.8261 18.6076H33.8264H33.8995H33.8998C36.7659 18.6046 39.0893 16.2818 39.0923 13.4151V13.4148V11.7689V11.7687C39.0893 8.90249 36.7659 6.5798 33.8998 6.57611H33.8995L33.8264 6.57611L33.8261 6.57611C30.96 6.5798 28.6372 8.90253 28.6335 11.7686V11.7689L28.6335 13.4142L28.6335 13.4145C28.6366 16.2812 30.9594 18.6046 33.8261 18.6076ZM31.2305 11.7696C31.2322 10.3367 32.3935 9.17537 33.8265 9.17365C33.8265 9.17365 33.8266 9.17365 33.8267 9.17365H33.8992C33.8993 9.17365 33.8994 9.17365 33.8994 9.17365C35.3325 9.17537 36.4938 10.3368 36.4954 11.7698V13.4145C36.4938 14.8476 35.3323 16.0091 33.8992 16.0107H33.8267C32.3936 16.0091 31.2322 14.8477 31.2305 13.4147C31.2305 13.4147 31.2305 13.4146 31.2305 13.4145V11.7698C31.2305 11.7697 31.2305 11.7697 31.2305 11.7696Z" fill="#F9ED37" stroke="#F9ED37" stroke-width="0.5"/>
<path d="M24.3483 21.4362C23.3304 22.5496 22.8273 24.0384 22.9593 25.5402L22.9593 37.562L22.9593 37.5621C22.96 39.4759 24.5111 41.027 26.4248 41.0283H26.425L26.4624 41.0283L26.4655 41.0282C26.8073 41.0241 27.1461 40.9683 27.4701 40.8635L28.014 62.2685L28.0141 62.2709C28.0643 63.7087 28.9557 64.982 30.2886 65.5217C31.5492 66.0326 32.9822 65.7974 34.0112 64.9278C35.0417 65.7991 36.4777 66.033 37.7394 65.5198L37.7396 65.5198C39.0731 64.9764 39.9625 63.6988 40.009 62.2591L40.0091 62.2574L40.5514 40.8749C41.537 41.1784 42.6141 41.029 43.4847 40.4538C44.4564 39.8119 45.0409 38.7249 45.0409 37.5603V25.5408C45.1736 24.039 44.6704 22.5502 43.6532 21.4369L43.6531 21.4368C42.6334 20.3213 41.1915 19.6857 39.6803 19.6851H39.6802L37.6101 19.6851L37.6096 19.6851C37.2794 19.6858 36.9621 19.8118 36.7216 20.0378L34.0162 22.5762L31.4234 20.0525L31.4234 20.0525C31.1812 19.8169 30.8559 19.6851 30.5183 19.6851H28.3218C26.81 19.6851 25.3681 20.3207 24.3483 21.4362ZM24.3483 21.4362L24.5328 21.6049M24.3483 21.4362L24.5328 21.6049M24.5328 21.6049C25.5052 20.5412 26.8802 19.9351 28.3218 19.9351H30.5183C30.7909 19.9351 31.0536 20.0415 31.249 20.2317L34.013 22.9219L23.2093 25.5291C23.08 24.0933 23.5598 22.6692 24.5328 21.6049ZM42.6998 25.3735L42.4511 25.3481C42.4512 25.3475 42.4512 25.347 42.4513 25.3465C42.5307 24.5639 42.2747 23.784 41.7473 23.2002C41.219 22.616 40.4684 22.2826 39.6808 22.2826H38.125L34.8917 25.3164C34.8791 25.3285 34.8674 25.3381 34.8624 25.3422L34.8619 25.3427L34.857 25.3467C34.8473 25.3556 34.8388 25.3627 34.8336 25.367L34.8247 25.3744L34.8173 25.3808L34.8172 25.3807C34.7296 25.4515 34.6337 25.5098 34.5321 25.5552C34.5296 25.5566 34.5268 25.5581 34.5236 25.5596C34.5194 25.5618 34.5133 25.5646 34.5059 25.5677C34.4968 25.5716 34.4889 25.5744 34.4828 25.5764C34.4308 25.5976 34.3784 25.6147 34.3265 25.6285L34.3101 25.6329L34.3025 25.6338C34.2574 25.6444 34.2099 25.6532 34.1601 25.6588C34.1455 25.661 34.1308 25.6626 34.1161 25.6636C34.0607 25.6692 34.007 25.6704 33.9555 25.669L33.9463 25.6688L33.9372 25.6679L33.9286 25.6669C33.8822 25.6641 33.8329 25.6592 33.7822 25.6502C33.7818 25.6501 33.7815 25.65 33.7811 25.65L33.7674 25.6477L33.7531 25.6452L33.7457 25.644L33.7458 25.6439C33.6908 25.633 33.6383 25.6188 33.5877 25.6023C33.5759 25.5985 33.5654 25.5944 33.5574 25.5909C33.5138 25.575 33.4697 25.5564 33.426 25.5344C33.4157 25.5295 33.4041 25.5238 33.3917 25.5169C33.342 25.4911 33.2949 25.4619 33.2508 25.4308C33.2416 25.4246 33.2346 25.4192 33.2307 25.416C33.193 25.388 33.157 25.3579 33.123 25.3261C33.1184 25.3226 33.1119 25.3174 33.1047 25.3112L33.0948 25.3025L33.095 25.3022L29.9908 22.2826H28.3218H28.3217C27.5341 22.2821 26.7831 22.6154 26.2547 23.2001C25.7269 23.7843 25.4703 24.565 25.5497 25.3488L25.5498 25.3492C25.5541 25.3926 25.5563 25.436 25.5563 25.4799V37.5624C25.5568 37.7949 25.6497 38.0177 25.815 38.1812C25.9789 38.3433 26.2014 38.4337 26.4323 38.4319C26.9231 38.4094 27.307 37.9993 27.2961 37.5073L27.2959 37.5018H27.296V29.4738V29.2238H27.546H29.643H29.893V29.4738V34.2093H29.8989L29.9052 34.4529L29.9258 35.2578H38.0965L38.1038 34.971V29.4738V29.2238H38.3538H40.4507H40.7007V29.4738V34.2626L40.4507 34.9993M42.6998 25.3735C42.6957 25.4086 42.694 25.4443 42.694 25.4794V37.5603C42.694 38.1799 42.192 38.6819 41.5723 38.6819C40.9527 38.6819 40.4507 38.1799 40.4507 37.5603V34.9993M42.6998 25.3735C42.787 24.5198 42.5079 23.6691 41.9328 23.0325L42.6998 25.3735ZM40.4507 34.9993L40.7007 35.0057L40.7007 35.0025V34.9993H40.4507ZM36.3624 63.1917H36.3617C35.7812 63.1912 35.3102 62.7202 35.3097 62.1397V40.343V40.093H35.0597H32.9628H32.7128V40.343V62.1397C32.7123 62.7112 32.2556 63.1778 31.684 63.1906C31.1133 63.2033 30.6368 62.7588 30.6096 62.1888C30.6095 62.188 30.6095 62.1872 30.6094 62.1864L29.9918 37.8553H38.0312L37.4129 62.1782C37.4129 62.1784 37.4129 62.1787 37.4129 62.1789C37.3946 62.7447 36.9291 63.1936 36.3624 63.1917Z" fill="#F9ED37" stroke="#F9ED37" stroke-width="0.5"/>
<path d="M27.6351 9.13338V9.13312V7.48784V7.48758C27.632 4.62086 25.3092 2.29809 22.4425 2.29501H22.4423L22.3697 2.29501L22.3694 2.29501C19.5027 2.29809 17.18 4.62086 17.1769 7.48758V7.48784L17.1769 9.13312L17.1769 9.13338C17.18 11.9995 19.5027 14.3223 22.3694 14.3259H22.3697H22.4423H22.4425C25.3093 14.3229 27.632 11.9995 27.6351 9.13338ZM25.0381 9.13284C25.0365 10.566 23.8756 11.7274 22.442 11.729H22.37C20.9369 11.7274 19.7756 10.5661 19.7738 9.13304C19.7738 9.13297 19.7738 9.1329 19.7738 9.13284V7.48812C19.7738 7.48806 19.7738 7.48799 19.7738 7.48792C19.7756 6.05497 20.9368 4.89368 22.3698 4.89197C22.3699 4.89197 22.3699 4.89197 22.37 4.89197H22.442C22.4421 4.89197 22.4421 4.89197 22.4422 4.89197C23.8758 4.89368 25.0365 6.05505 25.0381 7.48812V9.13284Z" fill="#F9ED37" stroke="#F9ED37" stroke-width="0.5"/>
<path d="M50.8239 9.13338V9.13312V7.48784V7.48758C50.8208 4.62086 48.4981 2.29809 45.6313 2.29501H45.6311L45.5579 2.29501L45.5577 2.29501C42.6915 2.29809 40.3688 4.62088 40.3651 7.48752V7.48784L40.3651 9.13312L40.3651 9.13344C40.3688 11.9995 42.6915 14.3223 45.5576 14.3259H45.5579H45.6311H45.6313C48.4981 14.3229 50.8208 11.9995 50.8239 9.13338ZM48.227 9.13284C48.2254 10.5659 47.0639 11.7274 45.6308 11.729H45.5582C44.1252 11.7274 42.9638 10.5661 42.9621 9.13304C42.9621 9.13297 42.9621 9.1329 42.9621 9.13284V7.48812C42.9621 7.48806 42.9621 7.48799 42.9621 7.48792C42.9638 6.05497 44.1251 4.89368 45.558 4.89197C45.5581 4.89197 45.5582 4.89197 45.5582 4.89197H45.6308C45.6309 4.89197 45.6309 4.89197 45.631 4.89197C47.064 4.89368 48.2254 6.05508 48.227 7.48812V9.13284Z" fill="#F9ED37" stroke="#F9ED37" stroke-width="0.5"/>
</g>
<defs>
<clipPath id="clip0">
<rect width="68" height="68" fill="white"/>
</clipPath>
</defs>
</svg>
