<svg width="68" height="68" viewBox="0 0 68 68" fill="none" xmlns="http://www.w3.org/2000/svg">
<g clip-path="url(#clip0)">
<path d="M16.2763 36.7253C14.4693 36.7253 12.9996 38.1948 12.9996 40.0017C12.9996 41.8086 14.4693 43.2781 16.2763 43.2781C18.0832 43.2781 19.5527 41.8085 19.5527 40.0017C19.5527 38.1948 18.083 36.7253 16.2763 36.7253ZM16.2763 40.7823C15.8462 40.7823 15.4958 40.4319 15.4958 40.0019C15.4958 39.572 15.8462 39.2216 16.2763 39.2216C16.7064 39.2216 17.0567 39.572 17.0567 40.0019C17.0567 40.4319 16.7063 40.7823 16.2763 40.7823Z" fill="#F9ED37" stroke="#F9ED37" stroke-width="0.5"/>
<path d="M33.0506 49.8933L32.8128 49.816C32.9785 49.3063 33.4641 48.9536 33.9998 48.9536C34.5355 48.9536 35.0213 49.3065 35.1868 49.8161L36.9627 55.2816H42.7095C43.2501 55.2816 43.7295 55.6295 43.8964 56.1443C44.0634 56.6584 43.8804 57.222 43.4424 57.5395L38.7934 60.9174L40.5693 66.3828C40.5693 66.3829 40.5693 66.3829 40.5693 66.3829C40.7215 66.8511 40.5789 67.3751 40.2107 67.7017L40.0448 67.5147L40.2107 67.7017C39.7764 68.0869 39.119 68.1197 38.6488 67.7781L33.9997 64.4001L29.3505 67.7781C28.9024 68.1037 28.2792 68.0912 27.8444 67.7485C27.4373 67.4278 27.2697 66.8757 27.43 66.3828C27.43 66.3828 27.43 66.3827 27.43 66.3827L29.2058 60.9172L24.5567 57.5393C24.5567 57.5393 24.5567 57.5393 24.5567 57.5393C24.1191 57.2216 23.9362 56.6581 24.1033 56.144L33.0506 49.8933ZM33.0506 49.8933L32.8128 49.816L31.037 55.2816H25.2902C24.7497 55.2816 24.2704 55.6297 24.1033 56.144L33.0506 49.8933ZM36.5931 59.4307C36.1556 59.7484 35.9726 60.3118 36.1397 60.826L37.0088 63.5009L34.7333 61.8478C34.2998 61.5327 33.6995 61.5326 33.2661 61.8478L30.9907 63.5009L31.8598 60.826C32.0269 60.3119 31.844 59.7483 31.4064 59.4307C31.4064 59.4307 31.4064 59.4307 31.4064 59.4306L29.1311 57.7776H31.9436C32.4842 57.7776 32.9635 57.4295 33.1306 56.9151L33.9997 54.2403L34.8688 56.9151C34.8688 56.9152 34.8688 56.9152 34.8688 56.9152C35.0359 57.4295 35.5152 57.7776 36.0557 57.7776H38.8683L36.5931 59.4307Z" fill="#F9ED37" stroke="#F9ED37" stroke-width="0.5"/>
<path d="M62.9413 67.7779L62.9412 67.7779L58.2921 64.3999L53.6429 67.7779C53.1947 68.1035 52.5716 68.0911 52.1367 67.7484C51.7296 67.4277 51.562 66.8755 51.7223 66.3826C51.7223 66.3826 51.7223 66.3826 51.7223 66.3826L53.4982 60.9171L48.8491 57.5392C48.4115 57.2216 48.2286 56.658 48.3956 56.1439L62.9413 67.7779ZM62.9413 67.7779C63.4115 68.1195 64.0687 68.0868 64.5031 67.7016L64.5032 67.7016C64.8714 67.375 65.0141 66.851 64.8618 66.3828C64.8618 66.3828 64.8618 66.3827 64.8618 66.3827L63.0859 60.9172L67.7349 57.5394C68.1729 57.2216 68.356 56.658 68.1887 56.1438C68.0216 55.6295 67.5423 55.2814 67.0018 55.2814H61.255L59.4792 49.8159C59.3137 49.3063 58.8279 48.9534 58.2922 48.9534C57.7565 48.9534 57.2708 49.3062 57.1052 49.8159L57.343 49.8931M62.9413 67.7779L57.343 49.8931M57.343 49.8931L57.1052 49.8159L55.3293 55.2814H49.5826C49.042 55.2814 48.5627 55.6295 48.3956 56.1439L57.343 49.8931ZM60.432 60.826L61.301 63.5009L59.0258 61.8477L59.0257 61.8477C58.5883 61.5299 57.9959 61.5297 57.5585 61.8478L55.2831 63.5009L56.1522 60.8259C56.3193 60.3118 56.1363 59.7483 55.6987 59.4306L53.4235 57.7776H56.2361C56.7767 57.7776 57.256 57.4295 57.4231 56.9151C57.4231 56.9151 57.4231 56.9151 57.4231 56.9151L58.2922 54.2403L59.1613 56.9151C59.3284 57.4295 59.8077 57.7776 60.3483 57.7776H63.1608L60.8855 59.4307C60.8855 59.4307 60.8854 59.4307 60.8854 59.4307C60.448 59.7484 60.265 60.3118 60.432 60.826Z" fill="#F9ED37" stroke="#F9ED37" stroke-width="0.5"/>
<path d="M14.3566 67.778L14.3567 67.7781C14.8269 68.1196 15.4841 68.0869 15.9184 67.7017L15.7525 67.5147L15.9184 67.7017C16.2867 67.3751 16.4293 66.8511 16.2771 66.3829C16.277 66.3829 16.277 66.3829 16.277 66.3828L14.5012 60.9174L19.1501 57.5396C19.1501 57.5395 19.1502 57.5395 19.1502 57.5395C19.5884 57.2219 19.7713 56.6583 19.6043 56.1441C19.437 55.6295 18.9577 55.2816 18.4172 55.2816H12.6704L10.8946 49.816C10.7275 49.3017 10.2482 48.9536 9.70758 48.9536C9.16699 48.9536 8.68768 49.3017 8.5206 49.816L6.74472 55.2816H0.998004C0.457414 55.2816 -0.0218963 55.6297 -0.188977 56.144C-0.356029 56.6582 -0.173063 57.2217 0.264512 57.5393L4.9136 60.9172L3.13772 66.3828C2.97067 66.8969 3.15358 67.4603 3.59106 67.778C4.02842 68.0959 4.62085 68.0959 5.05829 67.778L9.70745 64.4001L14.3566 67.778ZM12.3009 59.4307C11.8634 59.7484 11.6804 60.3118 11.8474 60.826L12.7165 63.5009L10.4411 61.8478C10.0076 61.5327 9.40736 61.5327 8.97388 61.8477C8.97386 61.8478 8.97384 61.8478 8.97382 61.8478L6.69859 63.5008L7.5676 60.8258C7.5676 60.8258 7.56761 60.8258 7.56761 60.8258C7.73465 60.3117 7.55172 59.7482 7.11421 59.4306C7.11418 59.4305 7.11415 59.4305 7.11412 59.4305L4.83887 57.7775H7.65138C8.19197 57.7775 8.67127 57.4294 8.83836 56.915C8.83836 56.915 8.83836 56.915 8.83836 56.915L9.70745 54.2402L10.5765 56.915C10.5765 56.915 10.5765 56.915 10.5765 56.915C10.7436 57.4294 11.2229 57.7775 11.7635 57.7775H14.5761L12.3009 59.4307Z" fill="#F9ED37" stroke="#F9ED37" stroke-width="0.5"/>
<path d="M37.1928 2.50047C37.1623 2.80964 36.9872 4.5271 36.6637 6.5152C36.3232 8.6079 35.8121 11.0433 35.1162 12.4349C32.4435 17.7804 26.6313 20.9576 24.1619 22.1152C24.2427 22.4295 24.286 22.7588 24.286 23.0979V43.3823C24.286 43.5708 24.2721 43.7558 24.2462 43.9367C24.997 44.4195 26.3029 45.014 28.1881 45.014H54.2702C55.5252 45.014 56.5467 43.9925 56.5467 42.7375C56.5467 41.4824 55.5252 40.4608 54.2702 40.4608H52.1313C51.4421 40.4608 50.8832 39.9021 50.8832 39.2127C50.8832 38.5233 51.4421 37.9647 52.1313 37.9647H55.6802C56.9352 37.9647 57.9567 36.943 57.9567 35.6882C57.9567 34.4333 56.9353 33.4117 55.6802 33.4117H52.8964C52.2072 33.4117 51.6483 32.853 51.6483 32.1636C51.6483 31.4742 52.2072 30.9155 52.8964 30.9155H57.0901C58.3451 30.9155 59.3666 29.8939 59.3666 28.639C59.3666 27.3841 58.3452 26.3625 57.0901 26.3625H52.8964C52.2072 26.3625 51.6482 25.8042 51.6482 25.1147C51.6482 24.4253 52.2071 23.8666 52.8963 23.8666H57.09C58.345 23.8666 59.3665 22.8452 59.3665 21.5901C59.3665 20.3351 58.3451 19.3135 57.09 19.3135H39.323C38.2895 19.3135 37.7019 18.0813 38.3545 17.2783C38.4012 17.2168 39.6718 15.5147 40.2166 11.7005C40.8775 7.07383 39.9792 4.81406 39.1623 3.74769L37.1928 2.50047ZM37.1928 2.50047C37.7553 2.59873 38.512 2.89914 39.1622 3.74767L37.1928 2.50047ZM41.4194 16.8173H57.0897C59.7215 16.8173 61.8622 18.9581 61.8622 21.59C61.8622 22.9848 61.2607 24.2417 60.3045 25.1146C61.2606 25.9874 61.8622 27.2443 61.8618 28.639L41.4194 16.8173ZM41.4194 16.8173C41.8873 15.7155 42.3885 14.1461 42.6876 12.0534C43.4593 6.65097 42.2982 3.7368 41.1436 2.22968C40.171 0.960149 38.8566 0.184894 37.3452 0.000616729L41.4194 16.8173ZM37.3451 0.000610456C35.985 -0.166405 34.7488 0.907343 34.7072 2.27026C34.6139 3.22695 34.3974 5.01171 34.083 6.80041C33.7656 8.60579 33.3546 10.3768 32.8837 11.3187C31.6513 13.7837 29.5585 15.7628 27.5297 17.2333C25.6018 18.6307 23.747 19.5577 22.7817 19.9983C22.1083 19.4652 21.2576 19.1455 20.3333 19.1455H12.2193C10.0396 19.1455 8.26672 20.9183 8.26672 23.0981V43.3827C8.26672 45.5625 10.0396 47.3352 12.2193 47.3352H20.3331C21.4243 47.3352 22.4134 46.8902 23.1287 46.1736C24.2232 46.8285 25.9102 47.5103 28.1878 47.5103H54.27C56.9019 47.5103 59.0425 45.3695 59.0425 42.7377C59.0425 41.6439 58.6724 40.6346 58.0514 39.829C59.4844 39.005 60.4522 37.4579 60.4522 35.6883C60.4522 34.5945 60.0821 33.5852 59.4611 32.7796C60.894 31.9557 61.8618 30.4086 61.8618 28.6391L37.3451 0.000610456ZM20.3331 44.839H12.2193C11.4164 44.839 10.7628 44.1854 10.7628 43.3825V23.0979C10.7628 22.295 11.4164 21.6414 12.2193 21.6414H20.3331C20.7039 21.6414 21.0425 21.781 21.3004 22.0112V44.1611C21.3004 44.2555 21.3112 44.3487 21.332 44.4392C21.0704 44.6871 20.7192 44.839 20.3331 44.839Z" fill="#F9ED37" stroke="#F9ED37" stroke-width="0.5"/>
</g>
<defs>
<clipPath id="clip0">
<rect width="68" height="68" fill="white"/>
</clipPath>
</defs>
</svg>
