<svg width="36" height="36" viewBox="0 0 36 36" fill="none" xmlns="http://www.w3.org/2000/svg">
<g clip-path="url(#clip0)">
<path d="M24.3271 0.000976562C22.0852 0.000976562 19.9105 0.66022 18.0001 1.92183C16.094 0.662822 13.9216 0.00111719 11.6721 0.0011875C5.32902 0.00125781 -0.0504004 5.10372 0.000294381 12.0322C0.0281379 15.8366 1.86827 17.8946 3.49177 19.7104C5.05157 21.4548 6.3986 22.9614 6.39867 25.9149C6.39867 29.3675 9.5163 36.0009 13.7814 36.0009C14.2354 36.0009 14.6384 35.7104 14.7819 35.2797C15.7028 32.5172 16.7465 29.3862 16.916 24.2756C16.9359 23.6748 17.412 23.2042 17.9999 23.2042C18.588 23.2042 19.064 23.6744 19.0836 24.2746C19.2494 29.3731 20.2954 32.5111 21.2182 35.2797C21.3618 35.7104 21.7648 36.0009 22.2188 36.0009C26.339 36.0009 29.6015 29.5479 29.6015 25.915C29.6015 22.9569 30.9489 21.4516 32.509 19.7085C34.1441 17.8817 35.9973 15.8112 35.9999 11.955C36.0047 5.08656 30.6722 0.000976562 24.3271 0.000976562ZM30.9374 18.3017C29.3225 20.1059 27.4922 22.1507 27.4922 25.9149C27.4922 28.4261 25.3202 32.8988 22.9359 33.7573C22.1122 31.2454 21.3317 28.5056 21.1919 24.206C21.135 22.4614 19.733 21.0947 18 21.0947C16.2678 21.0947 14.8658 22.4612 14.8079 24.2056C14.6649 28.5185 13.8851 31.2548 13.0629 33.7622C10.6963 32.9347 8.50809 28.4413 8.50809 25.9148C8.50809 22.1559 6.67851 20.1097 5.06429 18.3043C3.49071 16.5444 2.13173 15.0245 2.10972 12.0168C2.06739 6.23524 6.52474 2.11061 11.6721 2.11054C13.7133 2.11054 15.6816 2.78272 17.3643 4.05438C17.7406 4.33872 18.2598 4.33872 18.6361 4.05438C20.3007 2.79636 22.2472 2.12411 24.2651 2.11047C29.4143 2.07728 33.8946 6.17098 33.8907 11.9534C33.8885 15.0045 32.5209 16.5324 30.9374 18.3017Z" fill="#F9ED37"/>
<path d="M11.6723 6.32837C8.76457 6.32837 6.39893 8.69401 6.39893 11.6018C6.39893 14.5095 8.76457 16.8751 11.6723 16.8751C14.5801 16.8751 16.9457 14.5095 16.9457 11.6018C16.9457 8.69401 14.5801 6.32837 11.6723 6.32837ZM11.6723 14.7658C9.92767 14.7658 8.50828 13.3464 8.50828 11.6018C8.50828 9.85711 9.92767 8.43772 11.6723 8.43772C13.417 8.43772 14.8363 9.85711 14.8363 11.6018C14.8363 13.3464 13.417 14.7658 11.6723 14.7658Z" fill="#F9ED37"/>
<path d="M11.6722 12.6564C12.2547 12.6564 12.7269 12.1842 12.7269 11.6017C12.7269 11.0192 12.2547 10.547 11.6722 10.547C11.0898 10.547 10.6176 11.0192 10.6176 11.6017C10.6176 12.1842 11.0898 12.6564 11.6722 12.6564Z" fill="#F9ED37"/>
</g>
<defs>
<clipPath id="clip0">
<rect width="36" height="36" fill="white"/>
</clipPath>
</defs>
</svg>
