<svg width="14" height="14" viewBox="0 0 14 14" fill="none" xmlns="http://www.w3.org/2000/svg">
<path d="M6.77499 0C3.03327 0 0 2.91793 0 6.51737C0 10.1168 3.03327 13.0347 6.77499 13.0347C10.5167 13.0347 13.55 10.1168 13.55 6.51737C13.546 2.91954 10.5151 0.00384605 6.77499 0ZM7.25893 6.51737C7.25893 6.77448 7.04227 6.9829 6.77499 6.9829H2.90357C2.6363 6.9829 2.41963 6.77448 2.41963 6.51737C2.41963 6.26025 2.6363 6.05183 2.90357 6.05183H6.29108V2.79316C6.29108 2.53605 6.50775 2.32763 6.77502 2.32763C7.0423 2.32763 7.25893 2.53605 7.25893 2.79316V6.51737Z" fill="#999999"/>
</svg>
