<svg width="14" height="19" viewBox="0 0 14 19" fill="none" xmlns="http://www.w3.org/2000/svg">
<path d="M6.77567 0C3.03955 0 0 3.03955 0 6.77564C0 11.4122 6.06357 18.2191 6.32173 18.5066C6.56421 18.7766 6.98758 18.7762 7.22962 18.5066C7.48778 18.2191 13.5513 11.4122 13.5513 6.77564C13.5513 3.03955 10.5118 0 6.77567 0ZM6.77567 10.1847C4.89594 10.1847 3.3667 8.65538 3.3667 6.77564C3.3667 4.8959 4.89597 3.36666 6.77567 3.36666C8.65538 3.36666 10.1846 4.89594 10.1846 6.77567C10.1846 8.65541 8.65538 10.1847 6.77567 10.1847Z" fill="#999999"/>
</svg>
